<?xml version="1.0" standalone="no"?><!DOCTYPE svg PUBLIC "-//W3C//DTD SVG 1.1//EN" "http://www.w3.org/Graphics/SVG/1.1/DTD/svg11.dtd"><svg t="1702542401377" class="icon" viewBox="0 0 1507 1024" version="1.1" xmlns="http://www.w3.org/2000/svg" p-id="21210" xmlns:xlink="http://www.w3.org/1999/xlink" width="94.1875" height="64"><path d="M362.52346 932.853142h-58.186101c-2.063973-98.182315-7.717466-190.513715-16.996372-277.030094h-0.493559l-88.580352 277.030094h-44.312611L65.903567 655.823048h-0.493559c-6.550872 83.079415-10.651897 175.410814-12.374866 277.030094H0C3.436964 809.283954 11.988993 693.405311 25.727877 585.271054h72.10446l83.958847 255.394269h0.52048l84.443432-255.394269h68.990553c15.111875 126.6472 24.013881 242.534817 26.777811 347.591062" fill="#5D87A1" p-id="21211"></path><path d="M614.84869 676.399965c-23.699798 128.540671-54.928613 221.9579-93.740286 280.251687-30.214775 44.904881-63.301166 67.339374-99.37583 67.339374-9.601963 0-21.447375-2.90751-35.536237-8.614845v-31.031391c6.864955 1.023013 14.95932 1.543493 24.211305 1.543493 16.82587 0 30.394251-4.621506 40.705144-13.909385 12.338971-11.289037 18.50397-24.013881 18.50397-38.111717 0-9.601963-4.800982-29.344317-14.402945-59.20014l-63.839593-198.267076h57.136167l45.820208 148.274051c10.301919 33.687635 14.58242 57.207957 12.895347 70.605837 25.063816-66.953501 42.56272-139.901499 52.514661-218.879888" fill="#5D87A1" p-id="21212"></path><path d="M1389.323285 932.853142h-165.315293V585.271054h55.637543v304.830918h109.67775" fill="#F8981D" p-id="21213"></path><path d="M973.764683 863.306213c-14.06194-22.64089-21.106371-58.993743-21.106371-109.121374 0-87.566313 26.607309-131.34947 79.821926-131.34947 27.79185 0 48.23416 10.481395 61.273088 31.408291 14.052966 22.685759 21.097397 58.715555 21.097397 108.14323 0 88.230374-26.598335 132.363509-79.812952 132.363509-27.800824 0-48.23416-10.4455-61.273088-31.444186m207.025502 77.928455l-63.90241-31.48008c5.680414-4.70227 11.109561-9.709649 15.982333-15.52467 27.136763-31.901849 40.69617-79.12197 40.69617-141.624467 0-114.97229-45.1382-172.49433-135.4146-172.49433-44.303637 0-78.78994 14.58242-103.512751 43.774183-27.127789 31.937744-40.69617 78.942494-40.69617 141.095013 0 61.102585 11.988993 105.935676 36.03877 134.400561 21.976829 25.727877 55.099115 38.623223 99.411725 38.623223 16.547682 0 31.722373-2.028078 45.497152-6.102182l83.222995 48.413636" fill="#F8981D" p-id="21214"></path><path d="M869.686583 836.528402c0 29.478924-10.795478 53.663307-32.395408 72.59802-21.626851 18.853948-50.648111 28.321304-87.000964 28.321304-34.001718 0-66.944527-10.903164-98.891245-32.458225l14.941372-29.864797c27.477767 13.72991 52.335185 20.576917 74.661993 20.576917 20.926895 0 37.295101-4.666375 49.176409-13.846569 11.818491-9.296854 18.898817-22.228096 18.898817-38.632197 0-20.639734-14.367049-38.282219-40.803856-53.071037-24.390781-13.388905-73.082605-41.297415-73.082605-41.297414-26.436807-19.275716-39.646236-39.960319-39.646236-73.997932 0-28.150802 9.844256-50.899378 29.58661-68.209833 19.73338-17.355324 45.254859-26.050933 76.456752-26.050933 32.278749 0 61.614092 8.623819 88.050898 25.799667l-13.4248 29.793007c-22.613969-9.566068-44.904881-14.367049-66.917606-14.36705-17.812987 0-31.551871 4.280501-41.153834 12.895347-9.646832 8.525107-15.605433 19.526983-15.605434 32.915888 0 20.576917 14.726001 38.461695 41.853791 53.5287 24.713838 13.388905 74.635071 41.889685 74.635071 41.889686 27.127789 19.203926 40.660275 39.682131 40.660275 73.477451" fill="#F8981D" p-id="21215"></path><path d="M1459.121479 468.809114c-33.615844-0.843537-59.630882 2.521637-81.464131 11.782596-6.317553 2.485742-16.37718 2.485742-17.247638 10.481395 3.401069 3.365174 3.786942 8.794321 6.766243 13.460696 5.007379 8.372553 13.810674 19.697485 21.806327 25.620191 8.830216 6.694453 17.624538 13.388905 26.921392 19.28469 16.332311 10.122443 34.836281 15.973359 50.746823 26.077855 9.296854 5.850916 18.486022 13.424801 27.764929 19.73338 4.594584 3.365174 7.53799 8.830216 13.4248 10.903163v-1.256331c-2.943405-3.795916-3.786942-9.260959-6.694452-13.460696-4.208711-4.18179-8.408448-7.995653-12.617159-12.168469-12.204364-16.368206-27.34316-30.636544-43.675471-42.41914-13.460696-9.251985-42.876803-21.833249-48.305951-37.330996l-0.843537-0.879432c9.225064-0.834563 20.191044-4.199737 28.985365-6.766243 14.268338-3.742073 27.280344-2.90751 41.97045-6.694453 6.730348-1.6781 13.460696-3.777969 20.217965-5.850916v-3.822837c-7.600806-7.53799-13.038927-17.633512-21.025607-24.749733-21.384559-18.468075-44.940776-36.523355-69.304636-51.662151-13.038927-8.417422-29.828902-13.846569-43.711366-20.998685-5.016353-2.521637-13.388905-3.786942-16.332311-7.98668-7.573885-9.260959-11.782596-21.429428-17.247638-32.323617-12.168469-23.107528-23.942091-48.691824-34.423486-73.127474-7.573885-16.368206-12.204364-32.700517-21.420454-47.848286-43.289598-71.404504-90.294348-114.622312-162.542389-157.077347-15.569538-8.830216-34.037613-12.617159-53.744072-17.211743-10.508317-0.44869-21.025607-1.256332-31.507002-1.6781-6.730348-2.943405-13.460696-10.939059-19.347506-14.717027-23.942091-15.111875-85.636947-47.857261-103.306354-4.63048-11.324932 27.334186 16.781001 54.192761 26.463728 68.066252 7.152116 9.646832 16.404101 20.576917 21.420454 31.480081 2.943405 7.152116 3.786942 14.717027 6.730348 22.255017 6.694453 18.486022 13.003032 39.089861 21.833249 56.301604 4.594584 8.83919 9.646832 18.091175 15.524669 26.015038 3.374148 4.666375 9.225064 6.730348 10.526264 14.295259-5.895785 8.381527-6.344475 20.998685-9.673754 31.515976-15.14777 47.471387-9.260959 106.249759 12.159496 141.130908 6.694453 10.481395 22.676786 33.579949 44.097239 24.740759 18.934712-7.53799 14.717027-31.471107 20.191044-52.469792 1.22941-5.088143 0.385873-8.417422 2.90751-11.782596v0.879432c5.895785 11.746701 11.782596 23.026764 17.247638 34.845255 13.012006 20.541022 35.688792 41.997371 54.61453 56.265708 10.023731 7.564911 18.019385 20.567943 30.636544 25.198423v-1.256332h-0.843537c-2.512663-3.795916-6.308579-5.474016-9.673753-8.381526-7.53799-7.573885-15.910542-16.82587-21.833249-25.207397-17.633512-23.520322-33.20305-49.562282-47.013724-76.456752-6.757269-13.038927-12.617159-27.298291-18.082201-40.346192-2.521637-5.007379-2.521637-12.581264-6.730348-15.102901-6.308579 9.251985-15.524669 17.247638-20.119253 28.536675-7.995653 18.082201-8.83919 40.346192-11.782596 63.444747-1.6781 0.44869-0.843537 0-1.6781 0.843537-13.424801-3.365174-18.05528-17.211743-23.107528-28.958444-12.617159-29.828902-14.717027-77.713084-3.777968-112.172465 2.943405-8.794321 15.560564-36.487459 10.508316-44.904882-2.557532-8.022575-10.930085-12.581264-15.560564-18.934712-5.429147-7.98668-11.360827-18.037332-15.111875-26.840627-10.050653-23.529296-15.138796-49.607151-26.041959-73.091578-5.007379-10.939059-13.846569-22.290912-20.962791-32.350539-8.022575-11.324932-16.82587-19.320585-23.134449-32.745386-2.063973-4.621506-5.016353-12.204364-1.6781-17.211743 0.834563-3.365174 2.512663-4.621506 5.886811-5.474017 5.429147-4.621506 20.998685 1.238384 26.427833 3.760021 15.560564 6.272684 28.608466 12.204364 41.611498 20.998686 5.850916 4.199737 12.159495 12.19539 19.697484 14.295259h8.866112c13.424801 2.916484 28.536675 0.807642 41.153834 4.630479 22.255017 7.116221 42.419139 17.633512 60.474419 28.958444 55.000403 34.872176 100.389869 84.443432 131.026414 143.643572 5.052248 9.646832 7.152116 18.477048 11.782595 28.536675 8.794321 20.639734 19.73338 41.638419 28.536675 61.766646 8.830216 19.742354 17.238664 39.888529 29.855824 56.29263 6.281658 8.794321 31.480081 13.424801 42.840908 18.05528 8.381527 3.751047 21.420454 7.116221 28.985365 11.746701 14.268338 8.794321 28.536675 18.889843 41.997371 28.563596 6.694453 5.052248 27.693138 15.524669 28.958443 23.942091" fill="#5D87A1" p-id="21216"></path><path d="M1030.730348 103.826834c-7.152116 0-12.168469 0.843537-17.247638 2.108842v0.834563h0.834563c3.410043 6.703427 9.251985 11.360827 13.4248 17.247638 3.410043 6.694453 6.344475 13.388905 9.673754 20.119254l0.843537-0.834563c5.922706-4.172816 8.875085-10.903164 8.875085-20.998686-2.566506-2.943405-2.952379-5.886811-5.088143-8.830216-2.485742-4.172816-7.959758-6.281658-11.324932-9.646832" fill="#5D87A1" p-id="21217"></path><path d="M1429.005416 932.82622h9.225063v-35.374708h12.05181v-7.223907h-33.786346v7.223907h12.509473z m70.148173 0h8.686635v-42.598615h-13.074822l-10.616002 29.02126-11.60312-29.02126h-12.590238v42.589642h8.237946v-32.395408h0.457664l12.132574 32.395408h6.272684l12.096679-32.395408" fill="#F8981D" p-id="21218"></path></svg>